/* XPM */
static char *d9e57b5395d041998f7d3b01d96b2870Bx99DU9SFoJhJK8P[] = {
/* columns rows colors chars-per-pixel */
"16 16 51 1 ",
"  c None",
". c #325997",
"X c #335C9D",
"o c #345D9D",
"O c #36609F",
"+ c #526C8D",
"@ c #578BBE",
"# c #578CBF",
"$ c #659ECB",
"% c #6CA6D2",
"& c #71AFD8",
"* c #72B0D8",
"= c #78B7DE",
"- c #7CBDE2",
"; c #7FC1E4",
": c #B6B6B6",
"> c #BBB9B9",
", c #80C2E5",
"< c #81C3E5",
"1 c #81C5E6",
"2 c #81C4E7",
"3 c #82C4E7",
"4 c #82C5E8",
"5 c #82C6E8",
"6 c #83C6E8",
"7 c #85C9EA",
"8 c #86CAEB",
"9 c #87CBEC",
"0 c #88CCED",
"q c #89CEEE",
"w c #89CFEE",
"e c #8ACFEE",
"r c #8AD0EF",
"t c #8CD2F0",
"y c #8CD3F1",
"u c #8DD3F2",
"i c #8CD4F1",
"p c #90D8F5",
"a c #91D9F5",
"s c #91DAF6",
"d c #92DBF6",
"f c #93DAF7",
"g c #93DBF7",
"h c #93DCF8",
"j c #94DCF8",
"k c #95DDF9",
"l c #96DFFA",
"z c #96E0FA",
"x c #97E0FB",
"c c #9AE4FE",
"v c white",
/* pixels */
"     oooooo     ",
"   oooooooooo   ",
"  oooooooooooo  ",
" oooo+::::ooooo ",
" oooovvvvvvvooo ",
"ooo%ovvooovvoooo",
"ooooovvooovvoooo",
"poooov>#oovvoooo",
"ooow*vvvvvvooooo",
"7,oo:vooooo1oooo",
",6,1vvoOoo=7oooo",
" 6;rvv$oooooo&o ",
" 66yvv9c19Xoooo ",
"  -wrrxppjggo@  ",
"   9wupjjjjxx   ",
"     .1uuup     "
};
