/* XPM */
static char *_a0c45670b1d45bd9185219456071531vvH6GYmSXjrPlgoN[] = {
/* columns rows colors chars-per-pixel */
"64 64 124 2 ",
"   c None",
".  c #08101A",
"X  c #0E192B",
"o  c #1C3254",
"O  c #1C345B",
"+  c #2A4A7E",
"@  c #2C4F85",
"#  c #234F92",
"$  c #2C5494",
"%  c #2C569A",
"&  c #2E599E",
"*  c #305799",
"=  c #345D9D",
"-  c #36609F",
";  c #355FA0",
":  c #3761A1",
">  c #3A65A3",
",  c #3D69A6",
"<  c #406DAA",
"1  c #4472AC",
"2  c #5C78A3",
"3  c #4877B0",
"4  c #4B7CB3",
"5  c #4E80B6",
"6  c #5285BA",
"7  c #568BBE",
"8  c #588EBF",
"9  c #6E87A7",
"0  c #6783A9",
"q  c #598FC1",
"w  c #5C93C3",
"e  c #639CCA",
"r  c #66A0CD",
"t  c #6BA6D1",
"y  c #6DA9D4",
"u  c #70ADD6",
"i  c #7DBAD3",
"p  c #75B3DB",
"a  c #78B7DD",
"s  c #7AB9DE",
"d  c #7CBDE2",
"f  c #7FC1E4",
"g  c #99A6AB",
"h  c #A1A5A4",
"j  c #A7ABA7",
"k  c #ACACAC",
"l  c #AEB0AF",
"z  c #B3B1AE",
"x  c #ADAEB0",
"c  c #B5B5B5",
"v  c #B0B7BA",
"b  c #BDBCB9",
"n  c #86C8DF",
"m  c #81C4E6",
"M  c #8DC7E2",
"N  c #83C6E8",
"B  c #86CAEB",
"V  c #89CEEE",
"C  c #8ED1E7",
"Z  c #8BD0EF",
"A  c #8CD2F1",
"S  c #8DD3F2",
"D  c #8ED3F2",
"F  c #8CD1F0",
"G  c #8DD4F2",
"H  c #8DD5F2",
"J  c #8DD4F3",
"K  c #8ED4F2",
"L  c #8ED5F2",
"P  c #8ED4F3",
"I  c #8ED5F3",
"U  c #8FD5F3",
"Y  c #8FD6F3",
"T  c #8FD7F3",
"R  c #8FD6F4",
"E  c #8FD7F4",
"W  c #8DD4F2",
"Q  c #8DD8F8",
"!  c #90D6F4",
"~  c #90D7F4",
"^  c #90D7F5",
"/  c #90D7F4",
"(  c #90D8F5",
")  c #91D8F5",
"_  c #91D9F5",
"`  c #92DAF5",
"'  c #91D9F6",
"]  c #92D9F6",
"[  c #92DAF6",
"{  c #93DAF6",
"}  c #92DAF7",
"|  c #93DAF7",
" . c #93DBF7",
".. c #92DAF6",
"X. c #93DCF8",
"o. c #94DCF9",
"O. c #95DEFA",
"+. c #95DFFA",
"@. c #96DEFA",
"#. c #97DFFA",
"$. c #96DFFB",
"%. c #95DDF9",
"&. c #97E2FC",
"*. c #97E0FB",
"=. c #98E1FC",
"-. c #98E3FD",
";. c #9BE6FF",
":. c #9CE7FF",
">. c #99E4FD",
",. c #9EEBFF",
"<. c #9FEBFF",
"1. c gray79",
"2. c #CDCDCD",
"3. c #CECECE",
"4. c gray81",
"5. c #D8D8D8",
"6. c gray85",
"7. c #DDDDDD",
"8. c gray89",
"9. c #E6E6E6",
"0. c #F9F9F9",
"q. c #FEFEFE",
"w. c white",
"e. c white",
/* pixels */
"                                                      : = = = = = = = = = o                                                     ",
"                                            X = = = = = = = = = = = = = = = = = = =                                             ",
"                                        = = = = = = = = = = = = = = = = = = = = = = = =                                         ",
"                                    = = = = = = = = = = = = = = = = = = = = = = = = = = = = @                                   ",
"                                = = = = = = = = = = = = = = = = = = = = = = = = = = = = = = = =                                 ",
"                            = = = = = = = = = = = = = = = = = = = = = = = = = = = = = = = = = = = =                             ",
"                          = = = = = = = = = = = = = = = = = = = = = - = = = = = = = = = = = = = = = =                           ",
"                        = = = = = = = = = = = = = = = = = = = = = = = = = = = = = = = = = = = = = = = = :                       ",
"                    + = = = = = = = = = = = = = = = = = = = = = = = = = = = = = = = = = = = = = = = = = = =                     ",
"                  ; = = = = = = = = = = = = = = = = = = = = = = = = = = = = = = = = = = = = = = = = = = = = =                   ",
"                + = = = = = = = = = = = = = = = = = = = = = = = = = = = = = = = = = = = = = = = = = = = = = = =                 ",
"                = = = = = = = = = = = = = = = = = = = = = = = = = = = = = = = = = = = = = = = = = = = = = = = = =               ",
"              = = = = = = = = = = = = = = = = = = = = = = = = = = = = = = = = = = = = = = = = = = = = = = = = = = .             ",
"            = = = = = = = = = = = = = = = = = = = = = = = = = = = = = = = = = = = = = = = = = = = = = = = = = = = =             ",
"          = = > = = = = = = = = = = = = = = w.w.w.w.w.w.w.w.w.w.w.w.w.w.w.w.w.w.0.c x = = = = = = = = = = = = = = = =           ",
"          = = 1 = = = = = = = = - = = = = = w.w.w.w.w.w.w.w.w.w.w.w.w.w.w.w.w.w.w.w.w.w.c = = = = = = = = = = = = = = o         ",
"        = = = w = = = = = = = = = = = = = = w.w.w.w.w.w.w.w.w.w.w.w.w.w.w.w.w.w.w.w.w.w.w.3.= = = = = = = = = = = = = =         ",
"        = = = y = = = = = = = = = = = = = c w.w.w.w.w.w.w.w.w.w.w.w.w.w.w.w.w.w.w.w.w.w.w.w.6.= = = = = = = = = = = = = :       ",
"      = = = = y = = = = = = = = = = = = = c w.w.w.w.w.w.w.w.w.w.w.w.w.w.w.w.q.w.w.w.w.w.w.w.w.c = = = = = = = = = = = = =       ",
"      = = = = w = = = = = = < = = = = = = 6.w.w.w.w.w.4.= = = = = = = = % c c w.w.w.w.w.w.w.w.w.= = = = = = = = = = = = = @     ",
"    = = = = = : = = = = = = e = = = = = = w.w.w.w.w.w.c = = = = = = = = = = = 9 w.w.w.w.w.w.w.w.c = = = = = = = = = = = = =     ",
"    = = = = = = = = = = = = $ = = = = = = w.w.w.w.w.w.b = = = = = = = = = = = = $ w.w.w.w.w.w.w.c = = = = = = = = = = = = =     ",
"    = = = = = = = = = = = = = = = = = = 0 w.w.w.w.w.w.& = = = = = = = = = = = = = c w.w.w.w.w.w.c = = = = = = = = = = = = = =   ",
"  = = = = = = = 6 = = = = = = = = = = = c w.w.w.w.w.w.= = = = = = = = = = = = = = c w.w.w.w.w.w.c = = = = = = = = = = = = = =   ",
"  = = = = = = = a = = = = = 4 = = = = = c w.w.w.w.w.w.= = = = = = = = = = = = = = c w.w.w.w.w.w.c = = = = = = = = = = = = = =   ",
"  = = = = = = = = = = = = = 8 = = = = = w.w.w.w.w.w.k = = = = = = = = = = = = = = c w.w.w.w.w.w.c = = = = = = = = = = = = = =   ",
"  ( = = = = = = = 6 = = = = e = = = = = w.w.w.w.w.w.c = = = 3 = = = = = = = = = = w.w.w.w.w.w.w.% ; = = = = = = = = = = = = = > ",
"O D W = = = = = = N = = = = > = = = = = w.w.w.w.w.w.j = = = = 1 e = = = = = = = $ w.w.w.w.w.w.w.= = = = = = = = = = = = = = = = ",
"( D Z ( = = = = = = = = = = = = = = = l w.w.w.w.w.w.= = = = = = = < q = = = = = c w.w.w.w.w.w.c = = = = = = = = = = = = = = = = ",
"V W W ( ( = = = = = W = = = = p = = = c w.w.w.w.w.w.= = 6 = = = = = > e = = = c w.w.w.w.w.w.w.# = = = = = = = = = = = = = ; = = ",
"V y ~ N *.6 = = = = = ; = = = = = = = k w.w.w.w.w.w.= = = = y = = = = = w = c w.w.w.w.w.w.w.c = = = = = = = = = = = = = = = = = ",
"Z = ( ( V = ( = = = = = = = = = 7 = = w.w.w.w.w.w.c = = = = = d = = = = c 7.w.w.w.w.w.w.w.w.= = = = = = = = = = = 4 = = = = = = ",
"Z = #.W ( = D V = = * = f = = = = = = w.w.w.w.w.w.1.1.1.1.1.1.3.9.w.w.w.w.w.w.w.w.w.w.w.w.b = = = = = = = = = = = = = = = = = = ",
"m = V T ( &.#.Z m = = = = s = = = D = w.w.w.w.w.w.w.w.w.w.w.w.w.w.w.w.w.w.w.w.w.w.w.w.w.c t = = = = = = = = = = = = = = = = = = ",
"V A W V #.V p #.W = = = 1 = B = = = c w.w.w.w.w.w.w.w.w.w.w.w.w.w.w.w.w.w.w.w.w.w.w.w.h r y = = = = = = = = = = = = = e = = = = ",
"W Z 7 Z D ( = &.B = W = = I = W = = c w.w.w.w.w.w.w.w.w.w.w.w.w.w.w.w.w.w.w.w.w.w.c = = y u y = = = = = = = = = = $ = = = = = = ",
"i B - A N D = V ( = W *.= = = d ,.= 8.w.w.w.w.w.w.w.w.w.w.w.w.w.w.w.w.w.w.w.c c 1 = = = , y t = = = = = = = = = = = e = s = = = ",
"  B : ( W N 6 m W #.~ ( A = = = a ( w.w.w.w.w.w.c c c c c c c c c c v B = = = = = p = = = w t = = = = = = = = = = = = > 7 = = o ",
"  m B B W m Z D V ~ = ~ A A = y = B w.w.w.w.w.w.b = = = = = = = = = = p = = = = = B = = = = B = = = = = 1 = = = = = = 7 = = =   ",
"  f N Z m V N = ( I = V I V ( = m 2 w.w.w.w.w.w.= = = = , = = = = = = 6 a = = = = } = = = = p = = = = = = p = = = = = p = = =   ",
"  B d = d W Z = A B = W H B ( B = c w.w.w.w.w.w.= = = = = V = = = = = = V = = = = = = = = = s d = = = = = = = = = = = 6 = = =   ",
"    V m d d Z B f V V I V Z A Z V c w.w.w.w.w.w.Z = = = = = V = = = = = s = = = = > = = = = B = = = = = = = f = = = = d = = O   ",
"    d s m B f N = B A = B p A D B w.w.w.w.w.w.z W B = = = = N = = = = = m = = = = m = = = = = = A = = = = = p = = = = d W =     ",
"    f d m d W f = B m = I B A B ( w.w.w.w.w.w.c = ( d = = = = B = = = = ( = = = = ( = = = Z = = = = = = = = W = = = = y = =     ",
"      f V B d B B B B H V Z V N Z w.w.w.w.w.w.g A = I m = = = 7 I = = = A = = = = D = = = N = = = = = = = = D = = = = , =       ",
"      f B s p A a T a N a N N m z w.w.w.w.w.w.A I ,.;.V = = = = ( = = = f = = = = V = = = = = = , = = = = = 4 = = = = *.=       ",
"        p f N p m w B T Z V V ( c w.w.w.w.w.w.V A D A A I = = = f ;.= w H = = = = #.= = W = = = ( = = = = = = = = = = =         ",
"        d t N I B f X.H Z m B W c w.w.w.w.w.w.B D ( V W I = = = = Z = = % B = = = ( = = X.= = = } = = = = 3 = = = = y =         ",
"          p d d N B V V B f I P w.w.w.w.w.w.c W W W X.W Z B = = = W = = W B = = s ( = = ;.= = = , = = = = ( = = = = =           ",
"          C p B B d } I B m ~ B w.w.w.w.w.w.c D W W #.W Z #.= 6 = = V = B #.w = ( D = % Z = = = = = = = = = = = = #.=           ",
"            s f d N m N A B N Q w.w.w.w.w.w.M A V ( ( W #.( #.= = = *.= Z %.&.= %.*.= e W = = , = = = = = = , = = V             ",
"              m f a ~ m m B Z ~ W W m B V I #.D ( X.X.( V #.( #.#.Z 8 ) %.W W ~ V %.7 1 W = = *.= = w = * = N = =               ",
"                d d B N B P D V V D f B A V ( ( X.A #.*.W ( W D = $ = ( ( X.%.Z ( %.*.= V 5 = B X.= $ = > = = =                 ",
"                  V N m m B B Z A N X.A Z D A W ( W X.( ( #.~ ( N #.#.B W W &.%.B W W < X.X.= *.#.= = = = = % X                 ",
"                    N N a B B B V B N I ~ A B W ( X.( ( %.*.( ~ ( ( #.} B ) %.%.Z ) %.>.B ( #.( W =.= I = #.*.                  ",
"                      d d N N B V ( W B B A W X.I W #.W Z W *.&.*.X.#.( *.%.Z &.W X.) Z *.W ;.&.=.W ( ;.= n                     ",
"                        V m I ~ D W B W W A W I Z D  .V V &.~ ( *.#.*.( ( D ( %.#.( W ( ) W #.=.( ;.=. .                        ",
"                          p N V A N W ( B A I I D %.W W ~ ( &. .*.X.( *.*.) ( %.W #.( ( X.#.X.I Z =.*.                          ",
"                            ;.N W B N N Z I W V ) V B D N Z  .#.*.#.( #.X.#.( #.( *.#.( ~ ( *.;.*.*.                            ",
"                                ( f D I f B D A W V B V  . .(  .*.W *.W ( *.V #.X.( W *.#.#.#.(                                 ",
"                                    V A N B B B Z Z ( B ( %.) ( %.( ( W ~ X.#.( ( X.( I ( D                                     ",
"                                        O N ( N B N A Z V ) ~ ~ X.*.#.*.#.( W *.#.X.D (                                         ",
"                                              i : = = 3 %.W W *.) T W *.X.( ( ;.<                                               ",
"                                                      ;.L ( W W X.( W ) ;.                                                      "
};
