/* XPM */
static char *ae2e002760dd42a18f5d43b43915e4d6gZpGnaAO8IK9lGqz[] = {
/* columns rows colors chars-per-pixel */
"32 32 149 2 ",
"   c None",
".  c #0B1421",
"X  c #15263F",
"o  c #2F5799",
"O  c #305799",
"+  c #31599A",
"@  c #31599B",
"#  c #315A9B",
"$  c #325A9B",
"%  c #305A9C",
"&  c #335B9C",
"*  c #335C9C",
"=  c #345D9D",
"-  c #345E9D",
";  c #345E9E",
":  c #355E9E",
">  c #355FA0",
",  c #3661A3",
"<  c #3A65A3",
"1  c #3C67A4",
"2  c #3D69A6",
"3  c #517095",
"4  c #4574AD",
"5  c #4B7BB2",
"6  c #6A8094",
"7  c #5387BB",
"8  c #5F98C6",
"9  c #6198C7",
"0  c #639BC9",
"q  c #639CCA",
"w  c #6AA5D0",
"e  c #6CA8D3",
"r  c #6DAAD4",
"t  c #71ADD7",
"y  c #7BB8D3",
"u  c #73B0D9",
"i  c #73B1D9",
"p  c #75B4DB",
"a  c #77B6DD",
"s  c #77B7DD",
"d  c #78B8DE",
"f  c #79B9DF",
"g  c #79BADF",
"h  c #7ABAE0",
"j  c #7ABBE0",
"k  c #7EBFE3",
"l  c #7EC0E4",
"z  c #B6B6B6",
"x  c #B7B6B6",
"c  c #B7B7B6",
"v  c #BDB9B8",
"b  c #80C1E5",
"n  c #80C2E5",
"m  c #81C2E6",
"M  c #80C3E6",
"N  c #81C3E6",
"B  c #81C4E6",
"V  c #81C4E7",
"C  c #82C4E7",
"Z  c #82C5E7",
"A  c #88CAE0",
"S  c #83C5E8",
"D  c #83C6E8",
"F  c #83C7E8",
"G  c #83C7E9",
"H  c #84C7E8",
"J  c #84C7E9",
"K  c #84C7EA",
"L  c #84C8E9",
"P  c #84C9E9",
"I  c #85C8EA",
"U  c #85C9EA",
"Y  c #86C9EB",
"T  c #85CAEA",
"R  c #86CAEB",
"E  c #86CBEB",
"W  c #87CBEC",
"Q  c #87CCEC",
"!  c #88CBED",
"~  c #88CCED",
"^  c #88CDED",
"/  c #88CEED",
"(  c #89CEEE",
")  c #89CFEE",
"_  c #8ACEEE",
"`  c #8ACFEF",
"'  c #8BD0EE",
"]  c #8AD0EF",
"[  c #8BD1EF",
"{  c #8BD0F0",
"}  c #8BD1F0",
"|  c #8BD2F0",
" . c #8CD2F0",
".. c #8CD2F1",
"X. c #8CD3F1",
"o. c #8DD3F1",
"O. c #8DD3F2",
"+. c #8DD4F2",
"@. c #8ED4F2",
"#. c #8FD5F3",
"$. c #8FD6F3",
"%. c #8ED6F4",
"&. c #8FD6F4",
"*. c #8FD7F4",
"=. c #90D7F4",
"-. c #90D7F5",
";. c #91D8F4",
":. c #91D8F5",
">. c #91D9F5",
",. c #91D9F6",
"<. c #91D9F7",
"1. c #92D9F6",
"2. c #92D9F7",
"3. c #92DAF6",
"4. c #92DAF7",
"5. c #92DBF7",
"6. c #93DBF7",
"7. c #93DBF8",
"8. c #93DCF8",
"9. c #94DCF8",
"0. c #94DDF8",
"q. c #94DDF9",
"w. c #95DDF9",
"e. c #94DEF9",
"r. c #95DEF9",
"t. c #95DFF9",
"y. c #97DFF8",
"u. c #96DEF9",
"i. c #94DDFA",
"p. c #95DEFA",
"a. c #96DFFA",
"s. c #96DFFB",
"d. c #97E0FB",
"f. c #97E1FB",
"g. c #97E1FC",
"h. c #98E1FC",
"j. c #98E2FC",
"k. c #99E3FD",
"l. c #9AE4FE",
"z. c #9CE7FF",
"x. c #9CE8FF",
"c. c #9DE8FF",
"v. c #9EEAFF",
"b. c #C6C6C6",
"n. c gray78",
"m. c #E2E2E2",
"M. c gray96",
"N. c gray99",
"B. c white",
/* pixels */
"                        = = = = = = = =                         ",
"                  = = = = = = = = = = = = = =                   ",
"              X = = = = = = = = = = = = = = = = =               ",
"            = = = = = = = = = = = = = = = = = = = =             ",
"          = = = = = = = = = = = = = = = = = = = = = =           ",
"        = = = = = = = = = = = = = = = = = = = = = = = =         ",
"      = = = = = = = = = = = = = = = = = = = = = = = = = =       ",
"      = = = = = = = = B.B.B.B.B.B.B.B.B.B.z = = = = = = = =     ",
"    = = = = = = = = = B.B.B.B.B.B.B.B.B.B.B.B.= = = = = = =     ",
"  > = = = = = = = = = B.B.B.z z z z M.B.B.B.B.B.= = = = = = =   ",
"  = = = = = = = = = z B.B.B.= = = = = = B.B.B.B.= = = = = = =   ",
"  = = = = = = = = = B.B.B.z = = = = = = = B.B.B.= = = = = = =   ",
", = = = = = = = = = B.B.B.3 = = = = = = = B.B.B.= = = = = = = = ",
"U = = = = = = = = = B.B.B.= = 5 = = = = z B.B.B.= = = = = = = = ",
"= M = = = = = < = = B.B.B.= = = = g = = B.B.B.B.= = = = = = = = ",
"O 8.-.= = = = = = 6 B.B.B.= = r = = 0 B.B.B.B.= = = = = = = = = ",
"X.-.U -.= = B = 1 z B.B.B.B.B.B.B.B.B.B.B.B.z = = = = = = = = = ",
"f U d.X.X.= M U = B.B.B.B.B.B.B.B.B.B.B.B.% M = = = = = = = = = ",
"J X.X.$ -.-.$ = ~ B.B.B.B.B.B.B.B.B.z = J = t 9 = = = = * 9 = = ",
"y $ ! $ X.X.+.= = B.B.B.= = = = $ = = = = = = j = = J = = = g = ",
"  M R M Q = ~ ,.% B.B.B.= = = = * = q = = = = = = = = = = = s   ",
"  p M J W X.U ~ c B.B.B.[ = = U = = ,.= = = = = = = = = = = =   ",
"  A k M 2 ~ U B m.B.B.b.! g = = = = ,.= 4 = z.= U = = = B = =   ",
"    u f [ W D ~ B.B.B.v 6.~ X.= U = u.= J = = = - = = = ,.i     ",
"      h S =.X.,.B.B.B.[ +.*.,.= = = &.* X.= = * = r * = d .     ",
"      S U ~ ~ U b.b.b.;.+.5.8.f.,.g.X.u.u.= % * * 7 v.= *       ",
"        J ~ [ [ [ ~ ~ +.u.u.,.[ u.* W ,.,.u.u.$ = l.8.=         ",
"          J U U ~ ~ X.,.,.,.f.u.,.u.,.u.,.,.g.X.l.w =           ",
"            B [ } D +.-.6.f.+.-.j.s.7.u.+.,.+.u.f.+.            ",
"                ~ ~ M +.X.+.-.u.u.g.8.7.f.[ ,.f.                ",
"                  c.} B J ~ +.,.,.7.,.7.,.-.f.                  ",
"                        c.l O = = = *                           "
};
